<?xml version="1.0" encoding="UTF-8"?>
<svg width="17px" height="17px" viewBox="0 0 17 17" version="1.1" xmlns="http://www.w3.org/2000/svg" xmlns:xlink="http://www.w3.org/1999/xlink">
    <title>首页-首页</title>
    <g id="Symbols" stroke="none" stroke-width="1" fill="none" fill-rule="evenodd">
        <g id="01导航栏/03小程序/白底首页/B" transform="translate(-25.000000, -33.000000)" fill="#000000">
            <g id="01导航栏/03小程序/白底首页">
                <g id="Group-Copy">
                    <g transform="translate(7.000000, 26.000000)">
                        <g id="首页-首页" transform="translate(18.000000, 7.000000)">
                            <g>
                                <rect id="矩形" opacity="0" x="0" y="0" width="17" height="17"></rect>
                                <path d="M1.37394531,6.82606445 L8.49236328,1.74120508 L8.54062402,1.77566992 L15.6101006,6.82556641 C15.7365547,6.91654297 15.8868486,6.9646377 16.0422393,6.9646377 C16.2814678,6.9646377 16.5059541,6.8498877 16.6487939,6.65345801 C16.8879727,6.31812305 16.8106758,5.85344531 16.4764697,5.61436621 L8.92652734,0.221033203 C8.66810742,0.0370878906 8.32007227,0.0370048828 8.06206738,0.220667969 L0.511527344,5.61446582 C0.176839844,5.85155273 0.0986962891,6.31704395 0.338140625,6.65184766 C0.574331055,6.98533984 1.03897559,7.06336719 1.37394531,6.82606445 Z M6.1306582,11.9782266 L6.1306582,15.4290605 L3.09961133,15.4290605 C2.91599805,15.4290605 2.76492383,15.2779863 2.76492383,15.094373 L2.76492383,5.68133691 C2.76492383,5.27 2.43234473,4.93737109 2.02105762,4.93737109 C1.60977051,4.93737109 1.2771582,5.27 1.2771582,5.68135352 L1.2771582,15.0943564 C1.2771582,16.0989668 2.09511719,16.9169922 3.09961133,16.9169922 L13.8851484,16.9169922 C14.3007686,16.9169922 14.6994551,16.7761279 15.0226543,16.5171104 C15.4553906,16.1703535 15.7075684,15.6495625 15.7075684,15.0943564 L15.7075684,5.68135352 C15.7075684,5.2700166 15.3749727,4.93737109 14.9636855,4.93737109 C14.5523984,4.93737109 14.2198027,5.2700166 14.2198027,5.68135352 L14.2198027,15.0943564 C14.2198027,15.2779697 14.0687285,15.4290439 13.8851318,15.4290439 L10.8541016,15.4290439 L10.8541016,11.9782432 C10.8541016,10.6737588 9.79671484,9.61627246 8.49237988,9.61627246 C7.18804492,9.61627246 6.1306748,10.6737588 6.1306748,11.9782432 L6.1306582,11.9782266 Z M9.28329492,15.3460527 L7.70143164,15.3460527 L7.70143164,11.9782266 C7.70143164,11.5413564 8.05554297,11.1871953 8.49236328,11.1871953 C8.9292002,11.1871953 9.28331152,11.5413564 9.28331152,11.9782266 L9.28331152,15.3460527 L9.28329492,15.3460527 Z" id="形状" fill-rule="nonzero"></path>
                            </g>
                        </g>
                    </g>
                </g>
            </g>
        </g>
    </g>
</svg>